# xmcd
#
# Track frame offsets: 
#        150
#        19253
#        36655
#        66541
#        89182
#        117536
#        148354
#        170201
#        189972
#        221823
#        240549
#
# Disc length: 3815 seconds
#
# Revision: 1
# Processed by: cddbd v1.5.2PL0 Copyright (c) Steve Scherf et al.
# Submitted via: ExactAudioCopy v0.95a4
#
DISCID=bb0ee50b
DTITLE=Cæcilie Norby - London-Paris
DYEAR=2004
DGENRE=Jazz
TTITLE0=Face it girl its over
TTITLE1=How deep is your love
TTITLE2=But not for me
TTITLE3=Both sides now
TTITLE4=Cuban Cigars
TTITLE5=In a sentimental mood
TTITLE6=Rules of the road
TTITLE7=The good life
TTITLE8=You dont know what love is
TTITLE9=Sorry seems to be the hardest word
TTITLE10=African fairytale
EXTD=YEAR: 2004
EXTT0=
EXTT1=
EXTT2=
EXTT3=
EXTT4=
EXTT5=
EXTT6=
EXTT7=
EXTT8=
EXTT9=
EXTT10=
PLAYORDER=
